<?xml version="1.0" encoding="UTF-8" standalone="no"?>
<!-- Created with Inkscape (http://www.inkscape.org/) -->

<svg
   xmlns:dc="http://purl.org/dc/elements/1.1/"
   xmlns:cc="http://creativecommons.org/ns#"
   xmlns:rdf="http://www.w3.org/1999/02/22-rdf-syntax-ns#"
   xmlns:svg="http://www.w3.org/2000/svg"
   xmlns="http://www.w3.org/2000/svg"
   xmlns:sodipodi="http://sodipodi.sourceforge.net/DTD/sodipodi-0.dtd"
   xmlns:inkscape="http://www.inkscape.org/namespaces/inkscape"
   sodipodi:docname="radis_ico_dark.svg"
   inkscape:version="0.92.3 (2405546, 2018-03-11)"
   id="svg6424"
   version="1.1"
   viewBox="0 0 12.89982 12.902467"
   height="12.902467mm"
   width="12.89982mm"
   inkscape:export-filename="D:\GitHub\radis\docs\radis_ico_dark.png"
   inkscape:export-xdpi="600"
   inkscape:export-ydpi="600">
  <sodipodi:namedview
     inkscape:pagecheckerboard="true"
     inkscape:window-maximized="1"
     inkscape:window-y="-8"
     inkscape:window-x="-8"
     inkscape:window-height="1017"
     inkscape:window-width="1920"
     fit-margin-bottom="0"
     fit-margin-right="0"
     fit-margin-left="0"
     fit-margin-top="0"
     showgrid="false"
     inkscape:current-layer="layer1"
     inkscape:document-units="mm"
     inkscape:cy="27.470081"
     inkscape:cx="9.8917409"
     inkscape:zoom="11.2"
     inkscape:pageshadow="2"
     inkscape:pageopacity="0.0"
     borderopacity="1.0"
     bordercolor="#666666"
     pagecolor="#ffffff"
     id="base" />
  <defs
     id="defs6418" />
  <metadata
     id="metadata6421">
    <rdf:RDF>
      <cc:Work
         rdf:about="">
        <dc:format>image/svg+xml</dc:format>
        <dc:type
           rdf:resource="http://purl.org/dc/dcmitype/StillImage" />
        <dc:title></dc:title>
      </cc:Work>
    </rdf:RDF>
  </metadata>
  <g
     transform="translate(-186.12896,-99.221993)"
     id="layer1"
     inkscape:groupmode="layer"
     inkscape:label="Calque 1">
    <path
       sodipodi:nodetypes="ccccscccccsccccccccaccccsacccccc"
       id="path3412"
       d="m 190.76606,102.44522 c -0.13091,-0.0413 -0.49747,-0.25769 -0.71934,-0.42443 -0.19154,-0.14194 -0.45061,-0.39826 -0.57188,-0.56362 -0.23978,-0.32384 -0.42444,-0.72485 -0.48094,-1.0418 -0.0344,-0.19706 -0.0785,-0.808906 -0.0785,-1.110697 v -0.08268 l 0.16536,0.0083 c 0.0909,0.0041 0.25218,0.01654 0.35829,0.02756 1.07349,0.110243 1.85208,0.35829 2.44877,0.784107 0.44373,0.31557 0.66973,0.5705 0.91089,1.0225 0.0992,0.18741 0.1943,0.32797 0.22048,0.32797 0.0344,0 0.0813,-0.0703 0.1447,-0.21497 0.21497,-0.49196 0.58704,-0.86541 1.12448,-1.12724 0.22324,-0.10886 0.42581,-0.176384 0.7028,-0.23564 0.33899,-0.07166 0.5581,-0.103353 0.72898,-0.104731 h 0.15434 l 0.004,0.212218 c 0.0152,0.853003 -0.23427,1.496553 -0.75242,1.932013 -0.30179,0.25493 -0.68212,0.46577 -0.99907,0.55259 -0.12816,0.0358 -0.21498,0.0386 -0.40377,0.011 -0.22462,-0.0303 -0.74552,-0.0717 -1.0418,-0.0813 l -0.27698,-0.008 -0.0703,-0.0455 c -0.0951,-0.0606 -0.21911,-0.15848 -0.50988,-0.40653 -0.28249,-0.23977 -0.44235,-0.36793 -0.45888,-0.36793 -0.0386,0 0.062,0.0951 0.49058,0.45888 0.11575,0.0992 0.23978,0.20809 0.27423,0.24254 0.0648,0.0662 0.0785,0.11438 0.0386,0.13091 -0.0124,0.006 -0.1378,0.0152 -0.27974,0.0207 -0.28663,0.011 -0.42857,0.0248 -0.74276,0.0703 -0.23702,0.0358 -0.30455,0.0372 -0.38034,0.0138 z"
       style="fill:#00d100;fill-opacity:1;fill-rule:nonzero;stroke:none;stroke-width:0.35277775;opacity:1"
       inkscape:connector-curvature="0" />
    <path
       sodipodi:nodetypes="cccsccccccccccccccccscccccccc"
       id="path3414"
       d="m 193.21759,112.09552 c -0.011,-0.0179 -0.0661,-0.15571 -0.12264,-0.3073 -0.17088,-0.45889 -0.30869,-0.70555 -0.44649,-0.80202 -0.0317,-0.022 -0.0565,-0.0441 -0.0565,-0.0482 0,-0.006 0.0772,-0.0124 0.17088,-0.0179 0.21084,-0.01 0.44235,-0.0482 0.63252,-0.10335 0.0799,-0.0234 0.14607,-0.0413 0.14883,-0.04 0.003,0.003 -0.0193,0.0524 -0.0482,0.11162 -0.0937,0.19017 -0.14607,0.452 -0.18741,0.92604 -0.0207,0.23978 -0.0317,0.29904 -0.0551,0.30731 -0.008,0.003 -0.0248,-0.01 -0.0358,-0.0262 z m -1.18098,-1.49379 c -0.68764,-0.0634 -1.33807,-0.24253 -1.94165,-0.5333 -1.32154,-0.63803 -2.23932,-1.74046 -2.61139,-3.13642 -0.0276,-0.10197 -0.0358,-0.15434 -0.0276,-0.15985 0.008,-0.004 0.22187,-0.0248 0.47542,-0.0441 0.25356,-0.0193 1.7322,-0.13367 3.28663,-0.25356 1.55304,-0.12127 3.46025,-0.26872 4.23746,-0.32798 0.77722,-0.0606 1.59853,-0.12402 1.82728,-0.14193 0.22876,-0.0179 0.43271,-0.0331 0.45475,-0.0331 h 0.04 l -0.001,0.1254 c 0,0.6215 -0.30868,1.38631 -0.84749,2.10978 -0.21635,0.29077 -0.38309,0.48094 -0.69866,0.79788 -0.55122,0.5526 -0.81856,0.75241 -1.34497,1.00322 -0.5457,0.26182 -1.24023,0.4768 -1.85484,0.57602 -0.1571,0.0248 -0.78962,0.0372 -0.99357,0.0179 z"
       style="fill:#300a45;fill-opacity:1;fill-rule:nonzero;stroke:#ffffff;stroke-width:0.03527778;opacity:1;stroke-miterlimit:4;stroke-dasharray:none"
       inkscape:connector-curvature="0" />
    <path
       id="path3416"
       d="m 191.81342,108.97702 c -0.0785,-0.0138 -0.10059,-0.0331 -0.0579,-0.0496 0.0413,-0.0151 0.16261,-0.0303 0.68213,-0.0854 0.47404,-0.051 0.9219,-0.10887 1.14928,-0.14883 0.44786,-0.0799 1.74735,-0.50023 2.19797,-0.71107 0.36242,-0.1695 0.53744,-0.25632 0.57464,-0.2825 0.0606,-0.0427 0.0827,-0.0262 0.073,0.0538 -0.0165,0.14193 -0.1006,0.22324 -0.34727,0.33899 -0.32935,0.15572 -1.52135,0.55535 -1.92374,0.6463 -0.68488,0.15159 -2.03812,0.28939 -2.34818,0.2384 z m 0.10198,-0.33624 c -0.17777,-0.007 -0.2384,-0.0221 -0.2384,-0.0565 0,-0.0276 0.0386,-0.0303 0.28112,-0.0234 0.12678,0.004 0.32659,0 0.44786,-0.008 0.42444,-0.0289 1.00459,-0.10335 1.03077,-0.13229 0.0179,-0.0179 -0.15847,-0.008 -0.70142,0.0427 -0.50987,0.0469 -0.89986,0.0606 -0.97289,0.0345 -0.10749,-0.0358 -0.0703,-0.0455 0.17501,-0.0469 0.32246,-0.001 0.80064,-0.0468 1.31327,-0.12678 0.2949,-0.0455 0.47542,-0.0827 0.7152,-0.15158 0.11438,-0.0317 0.22875,-0.062 0.25494,-0.0662 0.0772,-0.0138 0.0592,0.0165 -0.0331,0.0579 -0.0455,0.0207 -0.0868,0.0427 -0.0909,0.0496 -0.004,0.007 0.007,0.0248 0.0248,0.0386 0.0179,0.0138 0.0317,0.0317 0.0317,0.0386 0,0.0179 -0.15985,0.0827 -0.30317,0.12264 -0.56499,0.16124 -1.35185,0.25356 -1.93476,0.22738 z"
       style="opacity:1;fill:#ffffff;fill-opacity:1;fill-rule:nonzero;stroke:none;stroke-width:0.35277775"
       inkscape:connector-curvature="0"
       sodipodi:nodetypes="ccccccccccccsccccccccccccsccc" />
    <path
       inkscape:connector-curvature="0"
       style="opacity:1;fill:#ffffff;fill-opacity:1;fill-rule:nonzero;stroke:#000000;stroke-width:0.03527778;stroke-miterlimit:4;stroke-dasharray:none"
       d="m 187.38579,106.15618 c -0.0138,-0.0345 0.007,-0.46853 0.0289,-0.61047 0.011,-0.0744 0.0344,-0.19706 0.0524,-0.27423 l 0.0331,-0.13781 h 0.25632 l -0.004,0.50575 -0.003,0.50711 -0.10335,0.008 c -0.26184,0.0221 -0.25357,0.0221 -0.26046,0.001 z m 0.91226,-1.0294 v -0.97427 h 0.45062 v 1.91823 l -0.19706,0.0152 c -0.10749,0.008 -0.20946,0.0152 -0.22462,0.0152 h -0.0289 z m 0.99219,-0.33486 v -1.23196 h 0.4644 l -0.006,2.43085 -0.16813,0.0152 c -0.0923,0.008 -0.19568,0.0152 -0.22875,0.0165 l -0.062,0.001 z m 1.00596,-0.32384 c 0,-1.39457 0.001,-1.47725 0.0234,-1.48552 0.0124,-0.006 0.11576,-0.01 0.22876,-0.01 h 0.2067 v 2.94073 l -0.18052,0.0152 c -0.0992,0.008 -0.20257,0.0152 -0.22876,0.0165 h -0.0496 z m 0.99633,0.11438 0.004,-1.28709 0.22875,-0.004 0.22875,-0.003 -0.003,1.27331 -0.004,1.27468 -0.16674,0.0152 c -0.0923,0.007 -0.19568,0.0152 -0.22875,0.0152 l -0.062,0.001 z m 1.00734,0.31557 0.003,-0.89297 h 0.452 v 1.75424 l -0.18052,0.0152 c -0.1006,0.008 -0.20257,0.0152 -0.23013,0.0152 l -0.0482,0.001 z m 0.99495,0.79926 c -0.003,-0.008 -0.004,-0.54157 -0.003,-1.18373 l 0.004,-1.1672 0.22875,-0.003 0.22875,-0.004 -0.003,1.17133 -0.004,1.17133 -0.16674,0.0138 c -0.23013,0.0207 -0.27698,0.0207 -0.28525,0.001 z m 1.00045,-1.38355 v -1.32154 h 0.21635 c 0.11851,0 0.22325,0.006 0.23151,0.011 0.0138,0.008 0.0165,0.27698 0.0138,1.305 l -0.004,1.29536 -0.18052,0.0152 c -0.0992,0.008 -0.20119,0.0165 -0.22875,0.0165 l -0.0482,10e-4 z m 1.00597,0.20671 v -1.03767 h 0.452 v 2.04639 l -0.20395,0.0152 c -0.11163,0.008 -0.21222,0.0152 -0.22462,0.0152 -0.0221,0 -0.0234,-0.0593 -0.0234,-1.03904 z m 0.99632,0.22324 0.004,-0.73863 0.22876,-0.004 0.22875,-0.003 -0.003,0.72485 -0.004,0.72623 -0.18052,0.0151 c -0.0992,0.008 -0.20257,0.0152 -0.22876,0.0165 h -0.0482 z m 1.00597,0.37483 0.004,-0.28801 0.0786,-0.004 c 0.0565,-0.003 0.0854,0.001 0.0978,0.0152 0.04,0.04 0.17777,0.38034 0.19706,0.48645 l 0.008,0.0469 -0.0813,0.008 c -0.0441,0.004 -0.13229,0.011 -0.19431,0.0165 l -0.11299,0.008 z"
       id="path1967"
       sodipodi:nodetypes="cccccccccccccccsccccccccccccsccccccccccccccccccccccccccccccccccccsccccccccccccscccccccccccccccccccccc" />
  </g>
</svg>
